<svg width="40" height="50" viewBox="0 0 40 50" fill="none" xmlns="http://www.w3.org/2000/svg">
<path d="M2.11979 2.77187C2.12074 2.40565 2.4184 2.10954 2.78463 2.1105L20.9538 2.15805C25.4187 2.16974 28.9746 3.26213 31.6214 5.43522C34.2681 7.60832 35.5868 10.5074 35.5773 14.1324C35.571 16.5196 34.9246 18.5956 33.6379 20.3605C32.7234 21.6598 31.546 22.7307 30.1057 23.5735C29.5692 23.8874 29.6153 24.7781 30.1853 25.0258C32.1596 25.8839 33.7674 27.093 35.0088 28.6531C36.6394 30.6025 37.4512 32.9034 37.4442 35.5558C37.4338 39.5345 35.9667 42.7136 33.0427 45.0931C30.1631 47.4286 26.3582 48.5901 21.6281 48.5777L2.66315 48.5281C2.29692 48.5271 2.00082 48.2295 2.00178 47.8633L2.11979 2.77187ZM20.6769 6.60019L7.87894 6.56669C7.51272 6.56573 7.21505 6.86184 7.2141 7.22807L7.17626 21.6838C7.1753 22.0501 7.47141 22.3477 7.83764 22.3487L20.6356 22.3822C23.6417 22.39 26.0308 21.689 27.8028 20.279C29.6191 18.8249 30.5304 16.9042 30.5366 14.517C30.5429 12.1298 29.6416 10.2266 27.8328 8.80719C26.0683 7.34372 23.683 6.60805 20.6769 6.60019ZM21.2418 44.1339C24.5574 44.1425 27.2119 43.3538 29.2054 41.7675C31.2431 40.1814 32.2654 38.0621 32.2723 35.4096C32.2793 32.7572 31.2681 30.6326 29.2387 29.0358C27.2535 27.4391 24.6032 26.6365 21.2876 26.6278L7.82653 26.5926C7.4603 26.5916 7.16264 26.8877 7.16169 27.2539L7.11934 43.4338C7.11838 43.8 7.41449 44.0977 7.78071 44.0986L21.2418 44.1339Z" fill="#0394B4"/>
<path d="M1.63453 2.67002L1.51652 47.7614C1.51468 48.4643 2.08395 49.035 2.78681 49.035L5.4901 49.035C6.19167 49.035 6.7604 48.4663 6.7604 47.7647L6.7604 25.7757L31.7724 48.7796C32.006 48.9944 32.3116 49.114 32.629 49.1149L37.7581 49.1283C38.9882 49.1315 39.5042 47.5591 38.5114 46.8328L7.92181 24.4555C7.89067 24.4327 7.8914 24.386 7.92324 24.3642L37.9523 3.81323C38.9815 3.10886 38.4853 1.49789 37.2382 1.49463L32.6718 1.48268C32.3695 1.48189 32.0769 1.58893 31.8464 1.78456L6.7604 23.0804L6.7604 2.67334C6.7604 1.97178 6.19167 1.40305 5.4901 1.40305L2.90482 1.40305C2.20455 1.40305 1.63636 1.96975 1.63453 2.67002Z" fill="#0394B4" stroke="#0394B4" stroke-width="1.21437"/>
<path d="M1.78858 2.76962L1.67057 47.861C1.66913 48.4112 2.11471 48.8579 2.66486 48.8579L5.36816 48.8579C5.91729 48.8579 6.36245 48.4127 6.36245 47.8636L6.36245 25.2458L31.8373 48.6753C32.0201 48.8435 32.2593 48.9371 32.5078 48.9377L37.6716 48.9513C38.6293 48.9538 39.0365 47.7338 38.2694 47.1605L8.3134 24.7749C8.13225 24.6396 8.13655 24.3666 8.32188 24.237L37.7201 3.67872C38.5159 3.12224 38.1239 1.87215 37.1529 1.86961L32.5491 1.85756C32.3125 1.85694 32.0835 1.94072 31.9031 2.09385L6.36245 23.7757L6.36245 2.77222C6.36245 2.22309 5.91728 1.77793 5.36815 1.77793L2.78287 1.77793C2.23475 1.77793 1.79002 2.2215 1.78858 2.76962Z" fill="#F6BB43" stroke="#0394B4" stroke-width="0.662365"/>
</svg>
